<svg xmlns="http://www.w3.org/2000/svg" viewBox="0 0 600 200"><defs><style>.cls-1{fill:#00b1f5;}.cls-2{fill:#3a3536;}.cls-3{font-size:72px;font-family:ArialRoundedMTBold, Arial Rounded MT Bold;}.cls-4{font-size:52px;fill:#5d6266;font-family:PingFangHK-Regular-B5pc-H, PingFang HK;}</style></defs><g id="圖層_1" data-name="圖層 1"><path class="cls-1" d="M77.21,28.38c30.63,0,56.3,19.22,63.36,45.14h8c-7.17-28.6-35.24-49.95-68.79-49.95C44.49,23.57,15.28,47.12,10,77.89h2.83C18.06,49.79,44.88,28.38,77.21,28.38Z"/><path class="cls-1" d="M81.32,171.62C50.7,171.62,25,152.4,18,126.48H10c7.17,28.6,35.24,50,68.8,50,35.24,0,64.45-23.55,69.73-54.32H145.7C140.47,150.21,113.65,171.62,81.32,171.62Z"/><g id="Group_52-2" data-name="Group 52-2"><rect id="Rectangle_97" data-name="Rectangle 97" class="cls-2" x="44.9" y="92.78" width="68.88" height="14"/></g><g id="Group_53" data-name="Group 53"><path id="Path_1007" data-name="Path 1007" class="cls-2" d="M20.57,107.83H13.84A3.85,3.85,0,0,1,10,104V96.31a3.85,3.85,0,0,1,3.84-3.84h6.73a3.84,3.84,0,0,1,3.84,3.84V104A3.85,3.85,0,0,1,20.57,107.83Z"/></g><g id="Group_55" data-name="Group 55"><path id="Path_1009" data-name="Path 1009" class="cls-2" d="M34.41,82v36.24a3.86,3.86,0,0,1-3.84,3.84H23.85A3.85,3.85,0,0,1,20,118.27V82a3.84,3.84,0,0,1,3.84-3.84h6.72A3.85,3.85,0,0,1,34.41,82Z"/></g><g id="Group_56" data-name="Group 56"><path id="Path_1010" data-name="Path 1010" class="cls-2" d="M59.21,65.5v69.44a3.86,3.86,0,0,1-3.84,3.84H48.65a3.85,3.85,0,0,1-3.84-3.84V65.5a3.85,3.85,0,0,1,3.84-3.84h6.72A3.86,3.86,0,0,1,59.21,65.5Z"/></g><g id="Group_53-2" data-name="Group 53"><path id="Path_1007-2" data-name="Path 1007" class="cls-2" d="M138,92.17h6.73A3.85,3.85,0,0,1,148.53,96v7.68a3.84,3.84,0,0,1-3.84,3.84H138a3.85,3.85,0,0,1-3.84-3.84V96A3.85,3.85,0,0,1,138,92.17Z"/></g><g id="Group_55-2" data-name="Group 55"><path id="Path_1009-2" data-name="Path 1009" class="cls-2" d="M124.13,118V81.73A3.85,3.85,0,0,1,128,77.89h6.72a3.85,3.85,0,0,1,3.84,3.84V118a3.85,3.85,0,0,1-3.84,3.84H128A3.84,3.84,0,0,1,124.13,118Z"/></g><g id="Group_56-2" data-name="Group 56"><path id="Path_1010-2" data-name="Path 1010" class="cls-2" d="M99.33,134.5V65.06a3.85,3.85,0,0,1,3.84-3.84h6.72a3.85,3.85,0,0,1,3.84,3.84V134.5a3.85,3.85,0,0,1-3.84,3.84h-6.72A3.85,3.85,0,0,1,99.33,134.5Z"/></g><text class="cls-3" transform="translate(181.12 91.78)">GYM POOL</text><text class="cls-4" transform="translate(191.9 160.9)">健身房會籍轉讓</text></g></svg>